Coordinates
version=1
nRows=10
nColumns=22
inDegrees=yes

Units are S.I. units (second, meters, Newtons, ...)
If the header above contains a line with 'inDegrees', this indicates whether rotational values are in degrees (yes) or radians (no).

endheader
time	pelvis_tilt	pelvis_list	pelvis_rotation	pelvis_tx	pelvis_ty	pelvis_tz	hip_flexion_r	hip_adduction_r	hip_rotation_r	knee_angle_r	ankle_angle_r	subtalar_angle_r	hip_flexion_l	hip_adduction_l	hip_rotation_l	knee_angle_l	ankle_angle_l	subtalar_angle_l	lumbar_extension	lumbar_bending	lumbar_rotation
      0.01000000	      0.37108310	     -4.02998389	     -8.32408363	     -1.24240456	      1.02345818	      0.41248866	     -0.82165966	      5.44155793	     -2.63451822	     -9.52270354	      8.71323759	     -5.01175861	     -0.06604768	     -2.93506377	     -8.32370779	    -11.29879120	     12.87972631	     -4.36170255	     -9.19958434	      3.40873081	      1.04724809
      0.02000000	      0.40179450	     -4.07870808	     -8.31256762	     -1.24233290	      1.02360931	      0.41247949	     -0.82741911	      5.47143775	     -2.79091256	     -9.56314504	      9.67169752	     -3.49398968	     -0.12935692	     -2.97948428	     -8.30574741	    -11.25830705	     12.85391023	     -4.31846557	     -9.24151315	      3.46588987	      1.04450005
      0.03000000	      0.40508792	     -4.08273550	     -8.30838828	     -1.24233490	      1.02360836	      0.41250079	     -0.83260738	      5.47762791	     -2.78128819	     -9.56122246	      9.67061334	     -3.49122505	     -0.12041082	     -2.98617165	     -8.29333560	    -11.28411432	     12.86325271	     -4.31915781	     -9.25484355	      3.47155602	      1.06506835
      0.04000000	      0.40385928	     -4.08111641	     -8.30781885	     -1.24230013	      1.02360245	      0.41253430	     -0.83299247	      5.47801264	     -2.78116912	     -9.56156798	      9.67057744	     -3.49117929	     -0.12080972	     -2.98660589	     -8.29337998	    -11.28440183	     12.86339146	     -4.31916974	     -9.25546215	      3.47224815	      1.06530638
      0.05000000	      0.40802270	     -4.08597996	     -8.30195018	     -1.24228257	      1.02360297	      0.41256047	     -0.83676387	      5.48501774	     -2.77704510	     -9.56738435	      9.67278998	     -3.48828037	     -0.11880872	     -2.99457553	     -8.28982187	    -11.29944897	     12.87351591	     -4.31923749	     -9.26724209	      3.47852286	      1.08435125
      0.06000000	      0.40669754	     -4.08414650	     -8.30123460	     -1.24224452	      1.02360042	      0.41259808	     -0.83741557	      5.48536501	     -2.77692432	     -9.56793345	      9.67280527	     -3.48824090	     -0.11921189	     -2.99504806	     -8.28985028	    -11.29975166	     12.87362052	     -4.31923451	     -9.26785633	      3.47924880	      1.08474247
      0.07000000	      0.41337731	     -4.08661012	     -8.29356374	     -1.24222566	      1.02360527	      0.41262466	     -0.84311972	      5.48941583	     -2.77516101	     -9.57547138	      9.67952984	     -3.48707167	     -0.11989482	     -3.00003428	     -8.28385394	    -11.31357350	     12.87947973	     -4.31810228	     -9.28180905	      3.48165190	      1.10922737
      0.08000000	      0.41441300	     -4.08523279	     -8.28703374	     -1.24218570	      1.02360344	      0.41265005	     -0.84564804	      5.48988119	     -2.77385129	     -9.57869552	      9.68092039	     -3.48703691	     -0.12119610	     -3.00061864	     -8.28407984	    -11.31478691	     12.88064362	     -4.31777507	     -9.28342880	      3.48342080	      1.11447052
      0.09000000	      0.42245822	     -4.08670880	     -8.28300040	     -1.24217698	      1.02361215	      0.41268627	     -0.85263292	      5.49283060	     -2.77542484	     -9.58464015	      9.69032496	     -3.48783860	     -0.12420215	     -3.00399493	     -8.27457596	    -11.32748865	     12.88476854	     -4.31561433	     -9.30097621	      3.48318087	      1.13962769
      0.10000000	      0.42349895	     -4.08501854	     -8.27410562	     -1.24214924	      1.02360987	      0.41270759	     -0.85452321	      5.49304400	     -2.77450648	     -9.58709404	      9.69185991	     -3.48812733	     -0.12507746	     -3.00424380	     -8.27498664	    -11.32708566	     12.88586748	     -4.31512770	     -9.30445543	      3.48449399	      1.14534674
